<svg width="76" height="76" viewBox="0 0 76 76" fill="none" xmlns="http://www.w3.org/2000/svg">
<circle cx="38" cy="38" r="38" fill="#D4E6F1"/>
<path d="M20 38V20C20 19.4477 20.4477 19 21 19H23.3902C23.9425 19 24.3902 19.4477 24.3902 20V24.1202C24.3902 25.0141 25.4735 25.4589 26.1017 24.823L31.56 19.2972C31.7479 19.107 32.0041 19 32.2715 19H35.1676C36.0555 19 36.503 20.071 35.879 20.7028L29.8291 26.8273C29.4793 27.1814 29.4432 27.7388 29.7443 28.1351L36.7804 37.395C37.2807 38.0534 36.8112 39 35.9842 39H33.2354C32.9186 39 32.6205 38.8499 32.4319 38.5953L26.8411 31.0489C26.476 30.556 25.7572 30.505 25.3262 30.9414L24.6788 31.5968C24.4939 31.7839 24.3902 32.0364 24.3902 32.2995V38C24.3902 38.5523 23.9425 39 23.3902 39H21C20.4477 39 20 38.5523 20 38Z" fill="#033962" stroke="#033962"/>
<path fill-rule="evenodd" clip-rule="evenodd" d="M0.00341797 38.5C0.0424225 35.4753 0.434818 32.5358 1.14121 29.7209C6.24093 34.1943 13.3433 38.9867 22.1789 38.9867C30.3123 38.9867 37.1239 35.9742 43.6135 33.1041C49.5172 30.4931 55.1544 28 61.2778 28C66.1475 28 70.9404 29.9478 75.4234 32.3676C75.7745 34.3624 75.97 36.4109 75.997 38.5C75.7293 59.2564 58.8201 76 38.0002 76C17.1803 76 0.271078 59.2564 0.00341797 38.5Z" fill="#B4D8E7"/>
<path d="M40 39.4444V37C40 36.4477 40.4477 36 41 36H56C56.5523 36 57 36.4477 57 37V39.4444C57 39.9967 56.5523 40.4444 56 40.4444H51.7368C51.1846 40.4444 50.7368 40.8922 50.7368 41.4444V55C50.7368 55.5523 50.2891 56 49.7368 56H46.8158C46.2635 56 45.8158 55.5523 45.8158 55V41.4444C45.8158 40.8922 45.3681 40.4444 44.8158 40.4444H41C40.4477 40.4444 40 39.9967 40 39.4444Z" fill="#033962" stroke="#033962"/>
<path fill-rule="evenodd" clip-rule="evenodd" d="M73.0871 52.6162C67.3603 66.3481 53.8072 76 37.9998 76C20.2401 76 5.32592 63.8167 1.15918 47.3521C4.15415 46.5209 7.21727 46 10.3064 46C17.582 46 24.2799 48.3392 31.2945 50.789C39.0052 53.482 47.0985 56.3085 56.7623 56.3085C62.9383 56.3085 68.4017 54.7522 73.0871 52.6162Z" fill="#D4E6F1"/>
</svg>
